<svg xmlns="http://www.w3.org/2000/svg" viewBox="0 0 200.5 253.5"><g id="Layer_2" data-name="Layer 2"><g id="OBJECTS"><path d="M1.21,108.86c.66,5.48,6,43.32,6,43.32l2.08,3.62-2.08-1.1a36,36,0,0,0,5.16,7.24c3.4,3.73,3.72,4.71,3.72,12.06s5.6,27.75,5.6,27.75l1.36-2.16,1,7.17.3-1.17L27.75,215l-.22-2.34s3.36,11,3.29,14.33S29,235.8,29,235.8l-1.59,1s-4.17.6-4.33,4.61a3.69,3.69,0,0,0,3.56,4.11c1.43,1.2,4.83.33,4.83.33,1.86,2.08,7.46,1.64,7.46,1.64,1,1.32,3.4,1.43,3.4,1.43a3.38,3.38,0,0,0,1.31,2.19c1.32,1.21,6.69,1.21,6.69,1.21,1.21,1.42,9.54,1.75,13,0s6.91-17.66,6.91-17.66c7.24,5.7,23.8,3.84,23.8,3.84,0,5.92,4.17,5.7,4.17,5.7,2.63,5.38,9.1,2.74,9.1,2.74,3.29,1.87,7.75.41,10.53-2.37s17.69-3.66,24.86-6,6.73-7.6,6.73-7.6a6.63,6.63,0,0,0,2.92-5.56s23.1.73,34.51-10.67,18-29.65,10.24-45.92c-9.51-20-27.64-20.91-35.39-27.64-6-5.16-16.82.88-8.48,10.09,8.89,9.83,34.36,12,31.07,33.49-4,26.36-40.36,21.71-40.58,18.86s-4.17-6.14-3.29-14.47-3.07-9.65-3.07-9.65-2.19-26.76-10.53-52.65S96.62,95,88.73,92s-5.27-11.92-5.27-11.92l1.61,1.54a21,21,0,0,0-3.35-6.84l1.74-5.16,3.07.66V68.5h1.1l1.32-5a45.57,45.57,0,0,0,5.26-1.2c2-.66,12.28-6,15.79-11.52s2-7.9-1.42-8.66-17.77-2.31-17.77-2.31a50.06,50.06,0,0,0-10.09-8.94A39.85,39.85,0,0,0,76,20.57s1.31-8.44,1.64-12.34S78.64-1,72.39.17s-14.7,11-14.7,11c-3.95.66-6.25,5.15-6.25,5.15-8.88.11-14.7,10-17.66,15.25s-10,20.07-10,20.07l-4.17,5.26,2.42-1.53S8.89,74.2,3.4,82.1.55,103.37,1.21,108.86ZM45.52,196l5.11,14-3.21,27.34Z"/></g></g></svg>